<svg width="120" height="100" viewBox="0 0 120 100" fill="none" xmlns="http://www.w3.org/2000/svg">
  <g id="triangles" opacity="0.98">
  <rect width="120" height="100"/>
    <g id="lightGroup">
      <path id="light1" opacity="0.46" d="M44.164 48.123C45.5003 48.8994 45.4886 50.8335 44.143 51.5937L14.0046 68.6204C12.6667 69.3763 11.0116 68.4036 11.0208 66.867L11.2286 32.4508C11.2379 30.9142 12.9046 29.9616 14.2333 30.7336L44.164 48.123Z"/>
    </g>
    <g id="darkGroup">
      <path id="dark1" opacity="0.5" d="M56.8441 48.592C58.169 49.3706 58.1574 51.2903 56.8232 52.0528L26.7667 69.2302C25.4288 69.9948 23.7651 69.0227 23.7744 67.4817L23.984 32.7652C23.9933 31.2242 25.6686 30.2722 26.9972 31.0529L56.8441 48.592Z"/>
      <path id="dark2" opacity="0.5" d="M46.318 48.2477C47.6992 49.0149 47.6871 51.0054 46.2968 51.7559L13.9704 69.207C12.6332 69.9289 11.0112 68.9546 11.0204 67.435L11.2335 32.1438C11.2426 30.6242 12.8763 29.6696 14.2047 30.4076L46.318 48.2477Z"/>
    </g>
    </g>
</svg>
